<?xml version="1.0" standalone="no"?><!DOCTYPE svg PUBLIC "-//W3C//DTD SVG 1.1//EN" "http://www.w3.org/Graphics/SVG/1.1/DTD/svg11.dtd"><svg t="1759490699673" class="icon" viewBox="0 0 1024 1024" version="1.1" xmlns="http://www.w3.org/2000/svg" p-id="12490" xmlns:xlink="http://www.w3.org/1999/xlink" width="64" height="64"><path d="M987.332342 475.332342H948.966022a438.430386 438.430386 0 0 0-400.356938-400.415513V36.609084a36.609084 36.609084 0 0 0-73.218168 0v38.307745a438.723258 438.723258 0 0 0-400.415513 400.415513H36.667658a36.609084 36.609084 0 0 0 0 73.218167h38.307745A438.781833 438.781833 0 0 0 475.390916 948.907448v38.424894a36.609084 36.609084 0 0 0 73.218168 0V948.907448A438.48896 438.48896 0 0 0 948.966022 548.550509h38.307745a36.609084 36.609084 0 0 0 0-73.218167z m-292.521222 73.218167h179.179499a363.630706 363.630706 0 0 1-325.498684 325.381535v-179.179499a36.609084 36.609084 0 0 0-73.218168 0v179.179499a363.572131 363.572131 0 0 1-325.32296-325.381535h179.120924a36.609084 36.609084 0 0 0 0-73.218167H150.067956a363.747855 363.747855 0 0 1 325.32296-325.44011v179.120924a36.609084 36.609084 0 0 0 73.218168 0V150.009381a363.454982 363.454982 0 0 1 325.381535 325.322961h-179.179499a36.609084 36.609084 0 1 0 0 73.218167z" fill="#606060" p-id="12491"></path></svg>