<?xml version="1.0" standalone="no"?><!DOCTYPE svg PUBLIC "-//W3C//DTD SVG 1.1//EN" "http://www.w3.org/Graphics/SVG/1.1/DTD/svg11.dtd"><svg t="1759490617282" class="icon" viewBox="0 0 1024 1024" version="1.1" xmlns="http://www.w3.org/2000/svg" p-id="7553" xmlns:xlink="http://www.w3.org/1999/xlink" width="64" height="64"><path d="M950.4 647.04a293.12 293.12 0 0 0-151.68-160 452.48 452.48 0 0 0-279.68-21.76 113.28 113.28 0 0 0-39.68-33.92 384 384 0 0 1 120.96-170.88 265.6 265.6 0 0 1 212.48-53.76 77.44 77.44 0 1 0 5.76-64 325.76 325.76 0 0 0-256 67.84 448 448 0 0 0-145.92 209.28h-8.96A256 256 0 0 0 256 314.24a172.8 172.8 0 0 0-67.84 0 74.88 74.88 0 0 0-47.36-17.92 76.16 76.16 0 1 0 75.52 77.44 119.68 119.68 0 0 1 26.24 0A187.52 187.52 0 0 1 350.08 448a113.28 113.28 0 0 0-25.6 37.12 309.12 309.12 0 0 0-151.04 48.64A292.48 292.48 0 0 0 49.92 748.8a76.16 76.16 0 1 0 103.04 71.04 75.52 75.52 0 0 0-39.04-64A228.48 228.48 0 0 1 208.64 588.8 240 240 0 0 1 320 551.68a113.28 113.28 0 0 0 224.64-20.48v-5.76a384 384 0 0 1 231.68 19.2 228.48 228.48 0 0 1 117.12 119.68 75.52 75.52 0 0 0-25.6 56.32 76.16 76.16 0 1 0 152.32 0 75.52 75.52 0 0 0-69.76-73.6z" p-id="7554"></path></svg>