<?xml version="1.0" standalone="no"?><!DOCTYPE svg PUBLIC "-//W3C//DTD SVG 1.1//EN" "http://www.w3.org/Graphics/SVG/1.1/DTD/svg11.dtd"><svg t="1759490856683" class="icon" viewBox="0 0 1024 1024" version="1.1" xmlns="http://www.w3.org/2000/svg" p-id="26722" xmlns:xlink="http://www.w3.org/1999/xlink" width="64" height="64"><path d="M654.864 396.208a32 32 0 0 1 47.936-2.656l168 170.672A32 32 0 0 1 880 586.672V848a32 32 0 0 1-32 32H176c-24.704 0-40.08-26.784-27.648-48.128l168-304a32 32 0 0 1 42.144-12.4l144.576 73.44z m27.792 68.128l-145.52 184.8a32 32 0 0 1-39.632 8.72l-141.088-71.664L231.696 816H816V599.776l-133.344-135.44z m10.016-312.768l1.952 1.808 160 160a32 32 0 0 1-43.216 47.12l-2.032-1.872-135.232-135.216L496.576 436.48a32 32 0 0 1-36.368 9.28l-2.512-1.136-136.112-68.064L217.6 515.2a32 32 0 0 1-42.64 7.888L172.8 521.6a32 32 0 0 1-7.888-42.64l1.488-2.16 120-160a32 32 0 0 1 37.44-10.528l2.464 1.12 137.328 68.64L647.424 155.52a32 32 0 0 1 45.248-3.952z" fill="#000000" p-id="26723"></path></svg>