<?xml version="1.0" standalone="no"?><!DOCTYPE svg PUBLIC "-//W3C//DTD SVG 1.1//EN" "http://www.w3.org/Graphics/SVG/1.1/DTD/svg11.dtd"><svg t="1759490796298" class="icon" viewBox="0 0 1024 1024" version="1.1" xmlns="http://www.w3.org/2000/svg" p-id="22836" xmlns:xlink="http://www.w3.org/1999/xlink" width="64" height="64"><path d="M341.4016 537.1904v2.4576-2.4576z m117.3504 2.4576v-1.4336-1.2288 2.6624z m522.6496 332.1856c-18.2272-123.2896-84.5824-225.4848-177.152-271.7696 66.56-45.056 106.9056-128.8192 90.5216-220.9792-14.1312-79.4624-73.1136-145.6128-147.8656-166.0928-48.3328-13.312-94.4128-7.7824-134.3488 10.0352-29.4912-65.9456-87.6544-116.5312-156.2624-133.3248-154.0096-37.4784-290.816 83.7632-290.816 238.3872 0 89.4976 46.4896 167.1168 115.0976 209.92-118.3744 52.224-207.4624 179.4048-227.9424 334.6432-4.7104 36.2496 23.552 68.4032 58.5728 68.4032h640.8192v-0.2048h171.008c35.2256 0 63.6928-32.5632 58.368-69.0176z m-870.4 7.7824c17.6128-129.6384 90.5216-240.2304 192.3072-285.0816l2.2528-1.024c10.24-4.5056 19.456-12.0832 26.0096-22.528 6.3488-10.0352 9.4208-21.504 9.6256-32.5632-0.2048-9.8304-2.6624-19.8656-7.5776-28.8768-5.12-9.6256-12.4928-17.2032-20.8896-22.3232l-2.2528-1.4336c-54.0672-33.792-86.4256-92.5696-86.4256-157.0816 0-101.376 78.848-183.9104 175.9232-183.9104 97.0752 0 175.9232 82.5344 175.9232 183.9104 0 64.7168-32.3584 123.4944-86.4256 157.0816l-2.2528 1.4336c-8.3968 5.3248-15.7696 12.6976-20.8896 22.3232-4.9152 9.216-7.3728 19.0464-7.5776 28.8768 0.2048 11.264 3.2768 22.528 9.6256 32.5632 6.5536 10.4448 15.7696 18.0224 26.0096 22.528l2.2528 1.024c101.7856 44.8512 174.6944 155.4432 192.3072 285.2864H111.0016z m637.3376 0c-18.6368-158.3104-108.544-288.5632-228.7616-341.6064 80.0768-49.9712 129.8432-147.2512 110.7968-255.7952 19.0464-9.6256 40.1408-15.36 62.6688-15.36 92.9792 0 165.888 90.9312 141.9264 192.1024-9.216 38.912-35.4304 71.0656-67.584 92.7744l11.0592-7.5776c-7.9872 5.3248-14.7456 12.6976-19.6608 22.1184-4.9152 9.4208-7.168 19.456-7.168 29.2864v7.168c0 11.264 2.8672 22.528 9.0112 32.5632 6.144 10.24 14.5408 17.8176 24.3712 22.528l-6.144-3.072c77.2096 38.7072 131.072 123.0848 145.2032 224.4608h-175.7184z" fill="#AAAAAA" p-id="22837"></path></svg>