<?xml version="1.0" standalone="no"?><!DOCTYPE svg PUBLIC "-//W3C//DTD SVG 1.1//EN" "http://www.w3.org/Graphics/SVG/1.1/DTD/svg11.dtd"><svg t="1759490904155" class="icon" viewBox="0 0 1024 1024" version="1.1" xmlns="http://www.w3.org/2000/svg" p-id="31518" xmlns:xlink="http://www.w3.org/1999/xlink" width="64" height="64"><path d="M815.609 685.166c82.089-16.677 143.115-91.456 145.329-179.632 1.834-73.083-36.884-138.616-96.311-170.957a174.503 174.503 0 0 0 3.232-29.383c2.264-90.168-65.593-168.433-155.77-170.699-76.199-1.915-139.204 51.166-158.272 122.07-12.51-3.606-25.73-5.537-39.402-5.537-30.296 0-58.369 9.484-81.429 25.645-8.386-37.612-20.889-72-36.849-101.364C365.915 119.707 317.487 73 254.087 73c-63.4 0-111.829 46.707-142.051 102.309C80.968 232.468 63 308.666 63 390.618c0 81.951 17.968 158.149 49.036 215.308 26.07 47.963 65.687 89.307 116.775 99.762v164.39H130.74c-22.336 0-40.442 18.115-40.442 40.461S108.404 951 130.74 951h760.302c22.335 0 40.441-18.115 40.441-40.461s-18.106-40.461-40.441-40.461h-75.433V685.166zM183.093 213.967c24.301-44.709 51.195-60.045 70.994-60.045 19.798 0 46.692 15.336 70.993 60.045 22.486 41.37 37.896 100.414 39.13 167.887-50.348 31.757-83.836 87.921-83.836 151.961 0 26.086 5.559 50.876 15.557 73.245-15.371 14.876-29.687 20.253-41.844 20.253-19.799 0-46.693-15.336-70.994-60.045-23.455-43.152-39.21-105.532-39.21-176.65 0-71.118 15.755-133.499 39.21-176.651zM309.694 695.31c12.71-6.112 24.509-14.136 35.29-23.512 31.067 25.907 71.025 41.495 114.631 41.495 3.636 0 7.249-0.109 10.834-0.324v157.109H309.694V695.31z m271.608 17.983c44.4 0 84.535-18.204 113.387-47.555a174.275 174.275 0 0 0 40.036 16.663v187.677H551.332V710.464a159.58 159.58 0 0 0 29.97 2.829z m197.052-99.544c-16.273-0.409-31.564-4.753-45.16-12.226 4.681-15.012 7.203-30.977 7.203-47.53 0-61.26-34.518-114.413-85.144-141.07a143.557 143.557 0 0 0 1.333-19.545c0-36.203-13.503-69.263-35.749-94.392l1.905 0.048c1.321-52.614 42.271-90.846 87.468-89.71 45.197 1.136 84.177 41.377 82.856 93.991-0.34 13.51-3.347 26.149-8.39 37.428l-17.634 39.434 41.525 11.843c44.623 12.726 78.941 57.294 77.577 111.634-1.611 64.15-51.655 111.505-107.79 110.095zM514.415 325.88c37.161 0 67.354 30.183 67.354 67.498 0 9.741-2.037 18.907-5.668 27.169l-17.936 40.805 43.275 10.611c36.812 9.026 64.14 42.356 64.14 82.03 0 46.679-37.767 84.447-84.278 84.447-14.705 0-28.433-3.743-40.387-10.299l-17.19-9.427-17.532 8.776c-13.976 6.997-29.764 10.95-46.578 10.95-57.635 0-104.424-46.804-104.424-104.625 0-44.848 28.174-83.17 67.837-98.038l26.143-9.799-1.951-27.863a67.74 67.74 0 0 1-0.16-4.737c0-37.315 30.193-67.498 67.355-67.498z" fill="#000000" p-id="31519"></path></svg>