<?xml version="1.0" standalone="no"?><!DOCTYPE svg PUBLIC "-//W3C//DTD SVG 1.1//EN" "http://www.w3.org/Graphics/SVG/1.1/DTD/svg11.dtd"><svg t="1759490946218" class="icon" viewBox="0 0 1024 1024" version="1.1" xmlns="http://www.w3.org/2000/svg" p-id="34415" xmlns:xlink="http://www.w3.org/1999/xlink" width="64" height="64"><path d="M636.26752 353.50016c-1.39264 1.31584-2.80576 2.61632-4.1728 3.97824a115.34336 115.34336 0 0 0-8.17152 9.22112h1.29024a142.0288 142.0288 0 0 1 11.05408-13.19936zM762.26048 311.53152l3.42528-3.43552s-1.28 1.25952-3.42528 3.43552z" fill="" p-id="34416"></path><path d="M78.44864 813.86496V139.29984h873.8048v225.83296l53.35552-0.36352-0.0256-249.55904c1.45408-23.49056-13.70112-42.15808-32.77824-42.15808H59.84768C40.76544 73.04704 25.6 91.71968 25.6 115.20512v722.75456c0 23.49056 15.16544 42.15808 34.24768 42.15808h149.6064l-0.6912-66.73408-130.31424 0.48128zM834.85696 622.99648c-5.03808 1.97632-11.11552 4.12672-18.28352 6.1952a151.96672 151.96672 0 0 0 18.28352-6.1952z" fill="" p-id="34417"></path><path d="M597.28384 507.91936c1.26976 7.88992 2.65728 14.42816 3.72224 18.98496 0.09216 0.33792 0.13312 0.70144 0.19456 1.03936-0.2048-4.36224-1.1776-10.35264-3.64544-18.73408l-0.27136-1.29024zM594.03776 476.07296c-0.76288-29.19936 3.88096-72.6528 31.17568-109.36832h-1.29024c-26.24 32.61952-31.31904 75.24864-29.88544 109.36832zM922.44992 464.85504l-24.73472 24.75008c-0.4096 0.4096-0.83968 0.768-1.25952 1.18272 8.67328-7.0144 17.37216-15.5648 25.99424-25.9328zM601.0624 532.59776a13.1072 13.1072 0 0 1-3.60448 6.58944c-0.00512 0.00512 2.85696-0.55808 3.60448-6.58944zM854.1696 613.37088a105.6512 105.6512 0 0 0 18.8928-14.92992 174.58688 174.58688 0 0 0 10.77248-11.89376c-8.13568 9.32352-17.95072 18.36032-29.66528 26.82368zM284.8512 393.98912c0.91136 1.05472 1.8688 2.07872 2.85696 3.072l40.71424 40.71936c14.96064 14.96576 34.19136 22.61504 52.51072 22.61504 10.94656 0 21.54496-2.7904 30.73024-8.34048l79.60576 79.5904a12.98432 12.98432 0 0 0 18.33472 0.01536 12.9792 12.9792 0 0 0 0.03072-18.37056L430.04928 433.7152c11.7504-19.39456 10.89536-45.21984-1.78176-67.01056a79.4112 79.4112 0 0 0-12.48768-16.26624l-40.72448-40.71936a64.67584 64.67584 0 0 0-3.03104-2.80576l-0.4096-0.36864a12.99456 12.99456 0 0 0-17.82784 0.512l-59.63776 59.648-9.09824 9.10336c-4.85888 4.85888-4.74624 13.03552-0.19968 18.18112z m78.23872-59.48928l34.31424 34.31424c17.38752 17.39264 20.17792 42.88512 6.23104 56.832-13.94688 13.95712-39.4496 11.16672-56.84736-6.2208l-34.304-34.32448 50.60608-50.60096zM903.13728 825.94816l-120.68352-120.6784a12.99968 12.99968 0 0 0-18.36032 18.37568l120.6784 120.6528c10.56256 10.58304 17.024 23.89504 18.1248 37.48864 1.08032 12.75392-2.7648 24.22272-10.83904 32.2816-8.04352 8.04864-19.50208 11.91424-32.29696 10.8544-13.57312-1.13664-26.89024-7.5776-37.46304-18.16064l-141.91616-141.91104a13.0048 13.0048 0 0 0-18.37568 18.37056l141.93152 141.92128c14.91456 14.91968 33.98144 24.02304 53.69344 25.66144 2.11968 0.18432 4.23936 0.26624 6.3488 0.26624 18.00192 0 34.30912-6.49728 46.44864-18.62144 13.53216-13.54752 20.07552-32.3072 18.36032-52.8128-1.62816-19.71712-10.73664-38.77376-25.6512-53.68832z" fill="" p-id="34418"></path><path d="M574.11584 525.6704l-251.60192 245.8624c-20.89984 20.91008-33.66912 46.15168-35.93216 71.07584-2.4832 27.32032 7.15776 52.7104 27.8784 73.43104 19.80416 19.80928 43.84256 29.65504 68.40832 29.65504 26.7008 0 54.0416-11.64288 77.24032-34.8672l239.71328-256.1024c37.79584 7.90528 133.33504 20.35712 191.60064-37.90336 47.87712-47.87712 67.56352-115.95776 52.64896-182.14912a13.0048 13.0048 0 0 0-21.85728-6.33344l-42.89536 42.90048c-33.1008 33.08032-86.93248 33.08032-120.00256 0a84.2752 84.2752 0 0 1-24.86272-60.0064c0-15.98976 4.47488-31.26272 12.69248-44.52864a85.07392 85.07392 0 0 1 12.17024-15.48288l42.88512-42.89536c1.74592-1.7408 2.94912-3.93728 3.4816-6.33856a12.96896 12.96896 0 0 0-9.80992-15.52384c-66.19648-14.89408-134.272 4.78208-182.14912 52.64384-8.1408 8.1408-15.20128 17.41824-21.22752 27.5968-24.47872 41.29792-31.35488 97.95072-18.3808 158.96576z m57.97888-168.192c1.37216-1.36704 2.78016-2.66752 4.1728-3.97824 31.88736-29.82912 73.16992-45.93664 115.95264-45.93664 4.49024 0 8.98048 0.18432 13.46048 0.53248l-3.42528 3.43552-21.31968 21.31456a110.16704 110.16704 0 0 0-32.45568 78.3872 110.1312 110.1312 0 0 0 32.45568 78.37184c42.81344 42.82368 112.20992 43.1872 155.51488 1.18272 0.41984-0.41472 0.84992-0.77824 1.25952-1.18272l24.73472-24.75008a169.25184 169.25184 0 0 1-36.66944 119.36768c-0.26112 0.31744-0.50176 0.62976-0.75776 0.93696-0.384 0.47104-0.78848 0.91136-1.1776 1.38752a174.58688 174.58688 0 0 1-10.77248 11.89376 105.6512 105.6512 0 0 1-18.8928 14.92992c-4.14208 2.5856-8.43776 4.92032-12.90752 7.00416-2.0736 0.9728-4.26496 1.75616-6.40512 2.62144a149.89312 149.89312 0 0 1-18.28352 6.1952c-38.01088 10.0352-81.94048 7.1936-118.17984-1.39776a12.99968 12.99968 0 0 0-12.47744 3.7632l-244.47488 261.2224c-33.95072 33.93536-77.58848 35.90656-108.61056 4.8896-15.09376-15.09888-22.13888-33.32608-20.3776-52.7104 1.7152-18.89792 11.81184-38.43584 28.32384-54.94784l256.67584-250.81856a13.06624 13.06624 0 0 0 3.74272-11.24864c-0.06144-0.33792-0.10752-0.70144-0.19456-1.03936a278.76352 278.76352 0 0 1-6.96832-50.83136c-1.4336-34.11968 3.64544-76.7488 29.88544-109.36832a114.52416 114.52416 0 0 1 8.17152-9.22624z" fill="" p-id="34419"></path></svg>